<svg xmlns="http://www.w3.org/2000/svg" viewBox="0 0 1180 360" width="1180" height="360" role="img">
<defs>
<style>
svg { font-family: Paperlogy, 'Pretendard Variable', Pretendard, 'Apple SD Gothic Neo', Inter, system-ui, sans-serif; background: #fff; }
.label { font-size: 20px; font-weight: 650; fill: #111827; }
.small { font-size: 15px; font-weight: 520; fill: #6B7280; }
.math { font-size: 17px; font-weight: 560; fill: #3F4654; }
</style>
<marker id="arrow" markerWidth="12" markerHeight="12" refX="10" refY="6" orient="auto" markerUnits="strokeWidth"><path d="M2,2 L10,6 L2,10" fill="none" stroke="context-stroke" stroke-width="2" stroke-linecap="round" stroke-linejoin="round"/></marker>
</defs>
<rect width="100%" height="100%" fill="#FFFFFF"/>
<rect x="60" y="86" width="265" height="160" rx="12" fill="#F8FAFC" stroke="#A9B4C4" stroke-width="2"/>
<text class="label" x="192" y="128" text-anchor="middle" dominant-baseline="middle">하나의 샘플</text>
<text class="math" x="192" y="166" text-anchor="middle" dominant-baseline="middle" style="font-size:18px">학생 A = [175, 65, 20, 3.5]</text>
<text class="small" x="192" y="206" text-anchor="middle" dominant-baseline="middle">점 하나, 벡터 하나</text>
<line x1="340.0" y1="166.0" x2="438.0" y2="166.0" stroke="#2F6FEB" stroke-width="2.4" stroke-linecap="round" marker-end="url(#arrow)"/>
<rect x="460" y="55" width="660" height="230" rx="12" fill="#EAF2FF" stroke="#2F6FEB" stroke-width="2"/>
<rect x="520" y="102" width="120" height="38" rx="7" fill="#FFFFFF" stroke="#A9B4C4" stroke-width="2"/>
<text class="small" x="580.0" y="121.0" text-anchor="middle" dominant-baseline="middle" style="fill:#111827;font-weight:700">키</text>
<rect x="640" y="102" width="120" height="38" rx="7" fill="#FFFFFF" stroke="#A9B4C4" stroke-width="2"/>
<text class="small" x="700.0" y="121.0" text-anchor="middle" dominant-baseline="middle" style="fill:#111827;font-weight:700">몸무게</text>
<rect x="760" y="102" width="120" height="38" rx="7" fill="#FFFFFF" stroke="#A9B4C4" stroke-width="2"/>
<text class="small" x="820.0" y="121.0" text-anchor="middle" dominant-baseline="middle" style="fill:#111827;font-weight:700">나이</text>
<rect x="880" y="102" width="120" height="38" rx="7" fill="#FFFFFF" stroke="#A9B4C4" stroke-width="2"/>
<text class="small" x="940.0" y="121.0" text-anchor="middle" dominant-baseline="middle" style="fill:#111827;font-weight:700">공부시간</text>
<rect x="520" y="140" width="120" height="38" rx="7" fill="#FFFFFF" stroke="#A9B4C4" stroke-width="2"/>
<text class="small" x="580.0" y="159.0" text-anchor="middle" dominant-baseline="middle" style="fill:#3F4654">175</text>
<rect x="640" y="140" width="120" height="38" rx="7" fill="#FFFFFF" stroke="#A9B4C4" stroke-width="2"/>
<text class="small" x="700.0" y="159.0" text-anchor="middle" dominant-baseline="middle" style="fill:#3F4654">65</text>
<rect x="760" y="140" width="120" height="38" rx="7" fill="#FFFFFF" stroke="#A9B4C4" stroke-width="2"/>
<text class="small" x="820.0" y="159.0" text-anchor="middle" dominant-baseline="middle" style="fill:#3F4654">20</text>
<rect x="880" y="140" width="120" height="38" rx="7" fill="#FFFFFF" stroke="#A9B4C4" stroke-width="2"/>
<text class="small" x="940.0" y="159.0" text-anchor="middle" dominant-baseline="middle" style="fill:#3F4654">3.5</text>
<rect x="520" y="178" width="120" height="38" rx="7" fill="#FFFFFF" stroke="#A9B4C4" stroke-width="2"/>
<text class="small" x="580.0" y="197.0" text-anchor="middle" dominant-baseline="middle" style="fill:#3F4654">168</text>
<rect x="640" y="178" width="120" height="38" rx="7" fill="#FFFFFF" stroke="#A9B4C4" stroke-width="2"/>
<text class="small" x="700.0" y="197.0" text-anchor="middle" dominant-baseline="middle" style="fill:#3F4654">54</text>
<rect x="760" y="178" width="120" height="38" rx="7" fill="#FFFFFF" stroke="#A9B4C4" stroke-width="2"/>
<text class="small" x="820.0" y="197.0" text-anchor="middle" dominant-baseline="middle" style="fill:#3F4654">19</text>
<rect x="880" y="178" width="120" height="38" rx="7" fill="#FFFFFF" stroke="#A9B4C4" stroke-width="2"/>
<text class="small" x="940.0" y="197.0" text-anchor="middle" dominant-baseline="middle" style="fill:#3F4654">4.0</text>
<rect x="520" y="216" width="120" height="38" rx="7" fill="#FFFFFF" stroke="#A9B4C4" stroke-width="2"/>
<text class="small" x="580.0" y="235.0" text-anchor="middle" dominant-baseline="middle" style="fill:#3F4654">181</text>
<rect x="640" y="216" width="120" height="38" rx="7" fill="#FFFFFF" stroke="#A9B4C4" stroke-width="2"/>
<text class="small" x="700.0" y="235.0" text-anchor="middle" dominant-baseline="middle" style="fill:#3F4654">78</text>
<rect x="760" y="216" width="120" height="38" rx="7" fill="#FFFFFF" stroke="#A9B4C4" stroke-width="2"/>
<text class="small" x="820.0" y="235.0" text-anchor="middle" dominant-baseline="middle" style="fill:#3F4654">21</text>
<rect x="880" y="216" width="120" height="38" rx="7" fill="#FFFFFF" stroke="#A9B4C4" stroke-width="2"/>
<text class="small" x="940.0" y="235.0" text-anchor="middle" dominant-baseline="middle" style="fill:#3F4654">2.0</text>
<rect x="520" y="254" width="120" height="38" rx="7" fill="#FFFFFF" stroke="#A9B4C4" stroke-width="2"/>
<text class="small" x="580.0" y="273.0" text-anchor="middle" dominant-baseline="middle" style="fill:#3F4654">162</text>
<rect x="640" y="254" width="120" height="38" rx="7" fill="#FFFFFF" stroke="#A9B4C4" stroke-width="2"/>
<text class="small" x="700.0" y="273.0" text-anchor="middle" dominant-baseline="middle" style="fill:#3F4654">50</text>
<rect x="760" y="254" width="120" height="38" rx="7" fill="#FFFFFF" stroke="#A9B4C4" stroke-width="2"/>
<text class="small" x="820.0" y="273.0" text-anchor="middle" dominant-baseline="middle" style="fill:#3F4654">20</text>
<rect x="880" y="254" width="120" height="38" rx="7" fill="#FFFFFF" stroke="#A9B4C4" stroke-width="2"/>
<text class="small" x="940.0" y="273.0" text-anchor="middle" dominant-baseline="middle" style="fill:#3F4654">5.5</text>
<text class="label" x="790" y="78" text-anchor="middle" dominant-baseline="middle">데이터셋 = 행렬 X ∈ Rᴺˣᵈ</text>
<text class="small" x="510" y="318" text-anchor="start" dominant-baseline="middle">행은 샘플</text>
<text class="small" x="708" y="318" text-anchor="start" dominant-baseline="middle">열은 특성(feature)</text>
<line x1="505.0" y1="305.0" x2="505.0" y2="252.0" stroke="#D94E4E" stroke-width="2.2" stroke-linecap="round" marker-end="url(#arrow)"/>
<line x1="700.0" y1="305.0" x2="700.0" y2="252.0" stroke="#2F6FEB" stroke-width="2.2" stroke-linecap="round" marker-end="url(#arrow)"/>
</svg>