<svg xmlns="http://www.w3.org/2000/svg" viewBox="0 0 1200 380" width="1200" height="380" role="img">
<defs>
<style>
svg { font-family: Paperlogy, 'Pretendard Variable', Pretendard, 'Apple SD Gothic Neo', Inter, system-ui, sans-serif; background: #fff; }
.label { font-size: 20px; font-weight: 650; fill: #111827; }
.small { font-size: 15px; font-weight: 520; fill: #6B7280; }
.math { font-size: 17px; font-weight: 560; fill: #3F4654; }
</style>
<marker id="arrow" markerWidth="12" markerHeight="12" refX="10" refY="6" orient="auto" markerUnits="strokeWidth"><path d="M2,2 L10,6 L2,10" fill="none" stroke="context-stroke" stroke-width="2" stroke-linecap="round" stroke-linejoin="round"/></marker>
</defs>
<rect width="100%" height="100%" fill="#FFFFFF"/>
<line x1="75.0" y1="322.0" x2="495.0" y2="322.0" stroke="#6B7280" stroke-width="1.8" stroke-linecap="round" marker-end="url(#arrow)"/><line x1="75.0" y1="322.0" x2="75.0" y2="72.0" stroke="#6B7280" stroke-width="1.8" stroke-linecap="round" marker-end="url(#arrow)"/><text class="small" x="513" y="326" text-anchor="start" dominant-baseline="middle">키 X</text><text class="small" x="65" y="60" text-anchor="end" dominant-baseline="middle">몸무게 Y</text>
<circle cx="116.0" cy="265.0" r="5" fill="#D94E4E" stroke="white" stroke-width="1.5"/>
<circle cx="150.0" cy="248.0" r="5" fill="#D94E4E" stroke="white" stroke-width="1.5"/>
<circle cx="185.0" cy="222.0" r="5" fill="#D94E4E" stroke="white" stroke-width="1.5"/>
<circle cx="225.0" cy="235.0" r="5" fill="#D94E4E" stroke="white" stroke-width="1.5"/>
<circle cx="260.0" cy="203.0" r="5" fill="#D94E4E" stroke="white" stroke-width="1.5"/>
<circle cx="310.0" cy="185.0" r="5" fill="#D94E4E" stroke="white" stroke-width="1.5"/>
<circle cx="352.0" cy="160.0" r="5" fill="#D94E4E" stroke="white" stroke-width="1.5"/>
<circle cx="405.0" cy="176.0" r="5" fill="#D94E4E" stroke="white" stroke-width="1.5"/>
<line x1="105.0" y1="286.0" x2="465.0" y2="132.0" stroke="#D94E4E" stroke-width="2.5" stroke-linecap="round"/>
<line x1="105.0" y1="306.0" x2="465.0" y2="230.0" stroke="#2F6FEB" stroke-width="2.5" stroke-linecap="round"/>
<text class="label" x="150" y="98" text-anchor="start" dominant-baseline="middle">두 후보 직선</text>
<text class="small" x="157" y="124" text-anchor="start" dominant-baseline="middle" style="fill:#D94E4E">y = ax + b</text>
<text class="small" x="157" y="148" text-anchor="start" dominant-baseline="middle" style="fill:#2F6FEB">y = 0.5ax + b</text>
<line x1="150.0" y1="248.0" x2="150.0" y2="266.8" stroke="#3F4654" stroke-width="1.4" stroke-linecap="round" stroke-dasharray="4 4"/>
<line x1="185.0" y1="222.0" x2="185.0" y2="251.8" stroke="#3F4654" stroke-width="1.4" stroke-linecap="round" stroke-dasharray="4 4"/>
<line x1="225.0" y1="235.0" x2="225.0" y2="234.7" stroke="#3F4654" stroke-width="1.4" stroke-linecap="round" stroke-dasharray="4 4"/>
<line x1="260.0" y1="203.0" x2="260.0" y2="219.7" stroke="#3F4654" stroke-width="1.4" stroke-linecap="round" stroke-dasharray="4 4"/>
<line x1="310.0" y1="185.0" x2="310.0" y2="198.3" stroke="#3F4654" stroke-width="1.4" stroke-linecap="round" stroke-dasharray="4 4"/>
<line x1="352.0" y1="160.0" x2="352.0" y2="180.3" stroke="#3F4654" stroke-width="1.4" stroke-linecap="round" stroke-dasharray="4 4"/>
<line x1="535.0" y1="197.0" x2="620.0" y2="197.0" stroke="#2F6FEB" stroke-width="2.4" stroke-linecap="round" marker-end="url(#arrow)"/>
<rect x="640" y="82" width="180" height="230" rx="12" fill="#EAF2FF" stroke="#2F6FEB" stroke-width="2"/>
<text class="label" x="730" y="128" text-anchor="middle" dominant-baseline="middle">오차 합산</text>
<text class="math" x="730" y="174" text-anchor="middle" dominant-baseline="middle" style="font-size:18px">L(W) = Σ |yₙ - fᵂ(xₙ)|</text>
<text class="small" x="730" y="220" text-anchor="middle" dominant-baseline="middle">파라미터 변화</text>
<text class="small" x="730" y="246" text-anchor="middle" dominant-baseline="middle">loss 변화</text>
<line x1="845.0" y1="197.0" x2="930.0" y2="197.0" stroke="#2F6FEB" stroke-width="2.4" stroke-linecap="round" marker-end="url(#arrow)"/>
<line x1="950.0" y1="306.0" x2="1140.0" y2="306.0" stroke="#6B7280" stroke-width="1.8" stroke-linecap="round" marker-end="url(#arrow)"/><line x1="950.0" y1="306.0" x2="950.0" y2="96.0" stroke="#6B7280" stroke-width="1.8" stroke-linecap="round" marker-end="url(#arrow)"/><text class="small" x="1158" y="310" text-anchor="start" dominant-baseline="middle">w₁</text><text class="small" x="940" y="84" text-anchor="end" dominant-baseline="middle">Loss</text>
<polyline points="965.0,132.0 1005.0,175.0 1045.0,220.0 1085.0,252.0 1130.0,208.0" fill="none" stroke="#3F4654" stroke-width="2.5" stroke-linecap="round" stroke-linejoin="round"/>
<circle cx="1085.0" cy="252.0" r="5" fill="#D94E4E" stroke="white" stroke-width="1.5"/>
<line x1="1085.0" y1="252.0" x2="1085.0" y2="306.0" stroke="#D94E4E" stroke-width="1.4" stroke-linecap="round" stroke-dasharray="4 4"/>
<text class="small" x="1085" y="326" text-anchor="middle" dominant-baseline="middle" style="fill:#D94E4E">최적의 모델</text>
</svg>