<svg xmlns="http://www.w3.org/2000/svg" viewBox="0 0 1200 390" width="1200" height="390" role="img">
<defs>
<style>
svg { font-family: Paperlogy, 'Pretendard Variable', Pretendard, 'Apple SD Gothic Neo', Inter, system-ui, sans-serif; background: #fff; }
.label { font-size: 20px; font-weight: 650; fill: #111827; }
.small { font-size: 15px; font-weight: 520; fill: #6B7280; }
.math { font-size: 17px; font-weight: 560; fill: #3F4654; }
</style>
<marker id="arrow" markerWidth="12" markerHeight="12" refX="10" refY="6" orient="auto" markerUnits="strokeWidth"><path d="M2,2 L10,6 L2,10" fill="none" stroke="context-stroke" stroke-width="2" stroke-linecap="round" stroke-linejoin="round"/></marker>
</defs>
<rect width="100%" height="100%" fill="#FFFFFF"/>
<rect x="50" y="54" width="505" height="300" rx="12" fill="#F8FAFC" stroke="#A9B4C4" stroke-width="2"/>
<text class="label" x="302" y="88" text-anchor="middle" dominant-baseline="middle">정규분포 가정</text>
<text class="small" x="302" y="120" text-anchor="middle" dominant-baseline="middle">오차가 종 모양이면 MLE는 MSE와 이어진다</text>
<line x1="115.0" y1="295.0" x2="285.0" y2="295.0" stroke="#6B7280" stroke-width="1.8" stroke-linecap="round" marker-end="url(#arrow)"/><line x1="115.0" y1="295.0" x2="115.0" y2="165.0" stroke="#6B7280" stroke-width="1.8" stroke-linecap="round" marker-end="url(#arrow)"/><text class="small" x="303" y="299" text-anchor="start" dominant-baseline="middle">오차 e</text><text class="small" x="105" y="153" text-anchor="end" dominant-baseline="middle">p(e)</text>
<path d="M 113.0 293.8 L 115.2 293.5 L 117.4 293.2 L 119.6 292.7 L 121.8 292.2 L 124.0 291.6 L 126.2 290.9 L 128.4 290.0 L 130.6 289.0 L 132.8 287.8 L 135.0 286.5 L 137.2 284.9 L 139.4 283.1 L 141.6 281.1 L 143.8 278.9 L 146.0 276.4 L 148.2 273.6 L 150.4 270.6 L 152.6 267.3 L 154.8 263.8 L 157.1 259.9 L 159.3 255.9 L 161.5 251.6 L 163.7 247.1 L 165.9 242.5 L 168.1 237.7 L 170.3 232.9 L 172.5 228.1 L 174.7 223.3 L 176.9 218.6 L 179.1 214.1 L 181.3 209.8 L 183.5 205.7 L 185.7 202.0 L 187.9 198.8 L 190.1 196.0 L 192.3 193.6 L 194.5 191.9 L 196.7 190.7 L 198.9 190.1 L 201.1 190.1 L 203.3 190.7 L 205.5 191.9 L 207.7 193.6 L 209.9 196.0 L 212.1 198.8 L 214.3 202.0 L 216.5 205.7 L 218.7 209.8 L 220.9 214.1 L 223.1 218.6 L 225.3 223.3 L 227.5 228.1 L 229.7 232.9 L 231.9 237.7 L 234.1 242.5 L 236.3 247.1 L 238.5 251.6 L 240.7 255.9 L 242.9 259.9 L 245.2 263.8 L 247.4 267.3 L 249.6 270.6 L 251.8 273.6 L 254.0 276.4 L 256.2 278.9 L 258.4 281.1 L 260.6 283.1 L 262.8 284.9 L 265.0 286.5 L 267.2 287.8 L 269.4 289.0 L 271.6 290.0 L 273.8 290.9 L 276.0 291.6 L 278.2 292.2 L 280.4 292.7 L 282.6 293.2 L 284.8 293.5 L 287.0 293.8" fill="none" stroke="#2F6FEB" stroke-width="3" stroke-linecap="round" stroke-linejoin="round"/>
<text class="math" x="380" y="207" text-anchor="middle" dominant-baseline="middle">L(W) = 1/N Σ (yₙ - fᵂ(xₙ))²</text>
<text class="small" x="380" y="246" text-anchor="middle" dominant-baseline="middle">큰 오차를 더 세게 벌준다</text>
<text class="small" x="380" y="276" text-anchor="middle" dominant-baseline="middle" style="fill:#D94E4E">outlier에 민감하다</text>
<rect x="645" y="54" width="505" height="300" rx="12" fill="#F8FAFC" stroke="#A9B4C4" stroke-width="2"/>
<text class="label" x="898" y="88" text-anchor="middle" dominant-baseline="middle">라플라스분포 가정</text>
<text class="small" x="898" y="120" text-anchor="middle" dominant-baseline="middle">오차가 뾰족하면 MLE는 MAE와 이어진다</text>
<line x1="710.0" y1="295.0" x2="880.0" y2="295.0" stroke="#6B7280" stroke-width="1.8" stroke-linecap="round" marker-end="url(#arrow)"/><line x1="710.0" y1="295.0" x2="710.0" y2="165.0" stroke="#6B7280" stroke-width="1.8" stroke-linecap="round" marker-end="url(#arrow)"/><text class="small" x="898" y="299" text-anchor="start" dominant-baseline="middle">오차 e</text><text class="small" x="700" y="153" text-anchor="end" dominant-baseline="middle">p(e)</text>
<path d="M 708.0 292.9 L 710.2 292.7 L 712.4 292.5 L 714.6 292.2 L 716.8 291.9 L 719.0 291.6 L 721.2 291.2 L 723.4 290.8 L 725.6 290.3 L 727.8 289.8 L 730.0 289.3 L 732.2 288.6 L 734.4 288.0 L 736.6 287.2 L 738.8 286.4 L 741.0 285.4 L 743.2 284.4 L 745.4 283.3 L 747.6 282.0 L 749.8 280.6 L 752.1 279.0 L 754.3 277.3 L 756.5 275.4 L 758.7 273.3 L 760.9 270.9 L 763.1 268.3 L 765.3 265.4 L 767.5 262.2 L 769.7 258.7 L 771.9 254.8 L 774.1 250.4 L 776.3 245.6 L 778.5 240.3 L 780.7 234.4 L 782.9 227.9 L 785.1 220.6 L 787.3 212.6 L 789.5 203.7 L 791.7 193.8 L 793.9 182.9 L 796.1 182.9 L 798.3 193.8 L 800.5 203.7 L 802.7 212.6 L 804.9 220.6 L 807.1 227.9 L 809.3 234.4 L 811.5 240.3 L 813.7 245.6 L 815.9 250.4 L 818.1 254.8 L 820.3 258.7 L 822.5 262.2 L 824.7 265.4 L 826.9 268.3 L 829.1 270.9 L 831.3 273.3 L 833.5 275.4 L 835.7 277.3 L 837.9 279.0 L 840.2 280.6 L 842.4 282.0 L 844.6 283.3 L 846.8 284.4 L 849.0 285.4 L 851.2 286.4 L 853.4 287.2 L 855.6 288.0 L 857.8 288.6 L 860.0 289.3 L 862.2 289.8 L 864.4 290.3 L 866.6 290.8 L 868.8 291.2 L 871.0 291.6 L 873.2 291.9 L 875.4 292.2 L 877.6 292.5 L 879.8 292.7 L 882.0 292.9" fill="none" stroke="#2F6FEB" stroke-width="3" stroke-linecap="round" stroke-linejoin="round"/>
<text class="math" x="975" y="207" text-anchor="middle" dominant-baseline="middle">L(W) = 1/N Σ |yₙ - fᵂ(xₙ)|</text>
<text class="small" x="975" y="246" text-anchor="middle" dominant-baseline="middle">오차 크기를 그대로 더한다</text>
<text class="small" x="975" y="276" text-anchor="middle" dominant-baseline="middle" style="fill:#D94E4E">outlier에 비교적 덜 흔들린다</text>
</svg>