<svg xmlns="http://www.w3.org/2000/svg" viewBox="0 0 1200 450" width="1200" height="450" role="img">
<defs>
<style>
svg { font-family: Paperlogy, 'Pretendard Variable', Pretendard, 'Apple SD Gothic Neo', Inter, system-ui, sans-serif; background: #fff; }
.label { font-size: 20px; font-weight: 650; fill: #111827; }
.small { font-size: 15px; font-weight: 520; fill: #6B7280; }
.math { font-size: 17px; font-weight: 560; fill: #3F4654; }
</style>
<marker id="arrow" markerWidth="12" markerHeight="12" refX="10" refY="6" orient="auto" markerUnits="strokeWidth"><path d="M2,2 L10,6 L2,10" fill="none" stroke="context-stroke" stroke-width="2" stroke-linecap="round" stroke-linejoin="round"/></marker>
</defs>
<rect width="100%" height="100%" fill="#FFFFFF"/>
<rect x="42" y="52" width="535" height="360" rx="12" fill="#F8FAFC" stroke="#A9B4C4" stroke-width="2"/>
<text class="label" x="310" y="88" text-anchor="middle" dominant-baseline="middle">생성 모델링</text>
<text class="small" x="310" y="122" text-anchor="middle" dominant-baseline="middle">샘플 전체 설명: P(X) 근사</text>
<line x1="105.0" y1="340.0" x2="485.0" y2="340.0" stroke="#6B7280" stroke-width="1.8" stroke-linecap="round" marker-end="url(#arrow)"/><line x1="105.0" y1="340.0" x2="105.0" y2="175.0" stroke="#6B7280" stroke-width="1.8" stroke-linecap="round" marker-end="url(#arrow)"/><text class="small" x="503" y="344" text-anchor="start" dominant-baseline="middle">X</text><text class="small" x="95" y="163" text-anchor="end" dominant-baseline="middle">P(X)</text>
<path d="M 172.0 338.6 L 174.4 338.2 L 176.7 337.8 L 179.1 337.3 L 181.4 336.6 L 183.8 335.9 L 186.1 335.0 L 188.5 333.9 L 190.8 332.7 L 193.2 331.3 L 195.5 329.6 L 197.9 327.7 L 200.3 325.5 L 202.6 323.1 L 205.0 320.4 L 207.3 317.3 L 209.7 314.0 L 212.0 310.3 L 214.4 306.3 L 216.7 301.9 L 219.1 297.3 L 221.4 292.3 L 223.8 287.1 L 226.2 281.6 L 228.5 276.0 L 230.9 270.2 L 233.2 264.3 L 235.6 258.4 L 237.9 252.6 L 240.3 246.9 L 242.6 241.3 L 245.0 236.1 L 247.3 231.2 L 249.7 226.7 L 252.1 222.7 L 254.4 219.3 L 256.8 216.4 L 259.1 214.3 L 261.5 212.8 L 263.8 212.1 L 266.2 212.1 L 268.5 212.8 L 270.9 214.3 L 273.2 216.4 L 275.6 219.3 L 277.9 222.7 L 280.3 226.7 L 282.7 231.2 L 285.0 236.1 L 287.4 241.3 L 289.7 246.9 L 292.1 252.6 L 294.4 258.4 L 296.8 264.3 L 299.1 270.2 L 301.5 276.0 L 303.8 281.6 L 306.2 287.1 L 308.6 292.3 L 310.9 297.3 L 313.3 301.9 L 315.6 306.3 L 318.0 310.3 L 320.3 314.0 L 322.7 317.3 L 325.0 320.4 L 327.4 323.1 L 329.7 325.5 L 332.1 327.7 L 334.5 329.6 L 336.8 331.3 L 339.2 332.7 L 341.5 333.9 L 343.9 335.0 L 346.2 335.9 L 348.6 336.6 L 350.9 337.3 L 353.3 337.8 L 355.6 338.2 L 358.0 338.6" fill="none" stroke="#A9B4C4" stroke-width="2" stroke-linecap="round" stroke-linejoin="round"/>
<path d="M 207.0 338.6 L 209.4 338.2 L 211.7 337.8 L 214.1 337.3 L 216.4 336.6 L 218.8 335.9 L 221.1 335.0 L 223.5 333.9 L 225.8 332.7 L 228.2 331.3 L 230.5 329.6 L 232.9 327.7 L 235.3 325.5 L 237.6 323.1 L 240.0 320.4 L 242.3 317.3 L 244.7 314.0 L 247.0 310.3 L 249.4 306.3 L 251.7 301.9 L 254.1 297.3 L 256.4 292.3 L 258.8 287.1 L 261.2 281.6 L 263.5 276.0 L 265.9 270.2 L 268.2 264.3 L 270.6 258.4 L 272.9 252.6 L 275.3 246.9 L 277.6 241.3 L 280.0 236.1 L 282.3 231.2 L 284.7 226.7 L 287.1 222.7 L 289.4 219.3 L 291.8 216.4 L 294.1 214.3 L 296.5 212.8 L 298.8 212.1 L 301.2 212.1 L 303.5 212.8 L 305.9 214.3 L 308.2 216.4 L 310.6 219.3 L 312.9 222.7 L 315.3 226.7 L 317.7 231.2 L 320.0 236.1 L 322.4 241.3 L 324.7 246.9 L 327.1 252.6 L 329.4 258.4 L 331.8 264.3 L 334.1 270.2 L 336.5 276.0 L 338.8 281.6 L 341.2 287.1 L 343.6 292.3 L 345.9 297.3 L 348.3 301.9 L 350.6 306.3 L 353.0 310.3 L 355.3 314.0 L 357.7 317.3 L 360.0 320.4 L 362.4 323.1 L 364.7 325.5 L 367.1 327.7 L 369.5 329.6 L 371.8 331.3 L 374.2 332.7 L 376.5 333.9 L 378.9 335.0 L 381.2 335.9 L 383.6 336.6 L 385.9 337.3 L 388.3 337.8 L 390.6 338.2 L 393.0 338.6" fill="none" stroke="#2F6FEB" stroke-width="3" stroke-linecap="round" stroke-linejoin="round"/>
<path d="M 243.0 338.6 L 245.4 338.2 L 247.7 337.8 L 250.1 337.3 L 252.4 336.6 L 254.8 335.9 L 257.1 335.0 L 259.5 333.9 L 261.8 332.7 L 264.2 331.3 L 266.5 329.6 L 268.9 327.7 L 271.3 325.5 L 273.6 323.1 L 276.0 320.4 L 278.3 317.3 L 280.7 314.0 L 283.0 310.3 L 285.4 306.3 L 287.7 301.9 L 290.1 297.3 L 292.4 292.3 L 294.8 287.1 L 297.2 281.6 L 299.5 276.0 L 301.9 270.2 L 304.2 264.3 L 306.6 258.4 L 308.9 252.6 L 311.3 246.9 L 313.6 241.3 L 316.0 236.1 L 318.3 231.2 L 320.7 226.7 L 323.1 222.7 L 325.4 219.3 L 327.8 216.4 L 330.1 214.3 L 332.5 212.8 L 334.8 212.1 L 337.2 212.1 L 339.5 212.8 L 341.9 214.3 L 344.2 216.4 L 346.6 219.3 L 348.9 222.7 L 351.3 226.7 L 353.7 231.2 L 356.0 236.1 L 358.4 241.3 L 360.7 246.9 L 363.1 252.6 L 365.4 258.4 L 367.8 264.3 L 370.1 270.2 L 372.5 276.0 L 374.8 281.6 L 377.2 287.1 L 379.6 292.3 L 381.9 297.3 L 384.3 301.9 L 386.6 306.3 L 389.0 310.3 L 391.3 314.0 L 393.7 317.3 L 396.0 320.4 L 398.4 323.1 L 400.7 325.5 L 403.1 327.7 L 405.5 329.6 L 407.8 331.3 L 410.2 332.7 L 412.5 333.9 L 414.9 335.0 L 417.2 335.9 L 419.6 336.6 L 421.9 337.3 L 424.3 337.8 L 426.6 338.2 L 429.0 338.6" fill="none" stroke="#3F4654" stroke-width="2" stroke-linecap="round" stroke-linejoin="round"/>
<circle cx="274.0" cy="350.0" r="5" fill="#D94E4E" stroke="white" stroke-width="1.5"/>
<circle cx="292.0" cy="350.0" r="5" fill="#D94E4E" stroke="white" stroke-width="1.5"/>
<circle cx="305.0" cy="350.0" r="5" fill="#D94E4E" stroke="white" stroke-width="1.5"/>
<circle cx="318.0" cy="350.0" r="5" fill="#D94E4E" stroke="white" stroke-width="1.5"/>
<circle cx="334.0" cy="350.0" r="5" fill="#D94E4E" stroke="white" stroke-width="1.5"/>
<text class="small" x="300" y="365" text-anchor="middle" dominant-baseline="middle">여러 Pθ 중 높은 likelihood 선택</text>
<rect x="623" y="52" width="535" height="360" rx="12" fill="#F8FAFC" stroke="#A9B4C4" stroke-width="2"/>
<text class="label" x="890" y="88" text-anchor="middle" dominant-baseline="middle">판별 모델링</text>
<text class="small" x="890" y="122" text-anchor="middle" dominant-baseline="middle">전체 P(X,Y) 대신 P(Y|X)</text>
<line x1="705.0" y1="340.0" x2="950.0" y2="340.0" stroke="#6B7280" stroke-width="1.8" stroke-linecap="round" marker-end="url(#arrow)"/><line x1="705.0" y1="340.0" x2="705.0" y2="175.0" stroke="#6B7280" stroke-width="1.8" stroke-linecap="round" marker-end="url(#arrow)"/><text class="small" x="968" y="344" text-anchor="start" dominant-baseline="middle">키 X</text><text class="small" x="695" y="163" text-anchor="end" dominant-baseline="middle">몸무게 Y</text>
<circle cx="735.0" cy="310.0" r="5" fill="#D94E4E" stroke="white" stroke-width="1.5"/>
<circle cx="758.0" cy="285.0" r="5" fill="#D94E4E" stroke="white" stroke-width="1.5"/>
<circle cx="782.0" cy="302.0" r="5" fill="#D94E4E" stroke="white" stroke-width="1.5"/>
<circle cx="808.0" cy="265.0" r="5" fill="#D94E4E" stroke="white" stroke-width="1.5"/>
<circle cx="830.0" cy="247.0" r="5" fill="#D94E4E" stroke="white" stroke-width="1.5"/>
<circle cx="858.0" cy="230.0" r="5" fill="#D94E4E" stroke="white" stroke-width="1.5"/>
<circle cx="884.0" cy="252.0" r="5" fill="#D94E4E" stroke="white" stroke-width="1.5"/>
<circle cx="912.0" cy="210.0" r="5" fill="#D94E4E" stroke="white" stroke-width="1.5"/>
<line x1="728.0" y1="318.0" x2="930.0" y2="190.0" stroke="#2F6FEB" stroke-width="3" stroke-linecap="round"/>
<line x1="790.0" y1="340.0" x2="790.0" y2="180.0" stroke="#D94E4E" stroke-width="1.6" stroke-linecap="round" stroke-dasharray="5 5"/>
<text class="small" x="790" y="160" text-anchor="middle" dominant-baseline="middle" style="fill:#D94E4E">x=165</text>
<line x1="875.0" y1="340.0" x2="875.0" y2="180.0" stroke="#D94E4E" stroke-width="1.6" stroke-linecap="round" stroke-dasharray="5 5"/>
<text class="small" x="875" y="160" text-anchor="middle" dominant-baseline="middle" style="fill:#D94E4E">x=180</text>
<path d="M 1000.4 194.0 L 1000.6 196.2 L 1000.8 198.5 L 1001.1 200.7 L 1001.4 202.9 L 1001.8 205.2 L 1002.3 207.4 L 1002.9 209.7 L 1003.7 211.9 L 1004.6 214.1 L 1005.6 216.4 L 1006.8 218.6 L 1008.2 220.8 L 1009.8 223.1 L 1011.5 225.3 L 1013.5 227.6 L 1015.6 229.8 L 1017.8 232.0 L 1020.2 234.3 L 1022.6 236.5 L 1025.1 238.7 L 1027.5 241.0 L 1029.9 243.2 L 1032.1 245.5 L 1034.2 247.7 L 1036.0 249.9 L 1037.5 252.2 L 1038.7 254.4 L 1039.5 256.6 L 1039.9 258.9 L 1039.9 261.1 L 1039.5 263.4 L 1038.7 265.6 L 1037.5 267.8 L 1036.0 270.1 L 1034.2 272.3 L 1032.1 274.5 L 1029.9 276.8 L 1027.5 279.0 L 1025.1 281.3 L 1022.6 283.5 L 1020.2 285.7 L 1017.8 288.0 L 1015.6 290.2 L 1013.5 292.4 L 1011.5 294.7 L 1009.8 296.9 L 1008.2 299.2 L 1006.8 301.4 L 1005.6 303.6 L 1004.6 305.9 L 1003.7 308.1 L 1002.9 310.3 L 1002.3 312.6 L 1001.8 314.8 L 1001.4 317.1 L 1001.1 319.3 L 1000.8 321.5 L 1000.6 323.8 L 1000.4 326.0" fill="none" stroke="#D94E4E" stroke-width="2.2" stroke-linecap="round" stroke-linejoin="round"/>
<path d="M 1080.4 194.0 L 1080.6 196.2 L 1080.8 198.5 L 1081.1 200.7 L 1081.4 202.9 L 1081.8 205.2 L 1082.3 207.4 L 1082.9 209.7 L 1083.7 211.9 L 1084.6 214.1 L 1085.6 216.4 L 1086.8 218.6 L 1088.2 220.8 L 1089.8 223.1 L 1091.5 225.3 L 1093.5 227.6 L 1095.6 229.8 L 1097.8 232.0 L 1100.2 234.3 L 1102.6 236.5 L 1105.1 238.7 L 1107.5 241.0 L 1109.9 243.2 L 1112.1 245.5 L 1114.2 247.7 L 1116.0 249.9 L 1117.5 252.2 L 1118.7 254.4 L 1119.5 256.6 L 1119.9 258.9 L 1119.9 261.1 L 1119.5 263.4 L 1118.7 265.6 L 1117.5 267.8 L 1116.0 270.1 L 1114.2 272.3 L 1112.1 274.5 L 1109.9 276.8 L 1107.5 279.0 L 1105.1 281.3 L 1102.6 283.5 L 1100.2 285.7 L 1097.8 288.0 L 1095.6 290.2 L 1093.5 292.4 L 1091.5 294.7 L 1089.8 296.9 L 1088.2 299.2 L 1086.8 301.4 L 1085.6 303.6 L 1084.6 305.9 L 1083.7 308.1 L 1082.9 310.3 L 1082.3 312.6 L 1081.8 314.8 L 1081.4 317.1 L 1081.1 319.3 L 1080.8 321.5 L 1080.6 323.8 L 1080.4 326.0" fill="none" stroke="#D94E4E" stroke-width="2.2" stroke-linecap="round" stroke-linejoin="round"/>
<text class="small" x="1038" y="365" text-anchor="middle" dominant-baseline="middle">입력 X 조건의 Y 분포 예측</text>
</svg>