<svg xmlns="http://www.w3.org/2000/svg" viewBox="0 0 1220 360" width="1220" height="360" role="img">
<defs>
<style>
svg { font-family: Paperlogy, 'Pretendard Variable', Pretendard, 'Apple SD Gothic Neo', Inter, system-ui, sans-serif; background: #fff; }
.label { font-size: 20px; font-weight: 650; fill: #111827; }
.small { font-size: 15px; font-weight: 520; fill: #6B7280; }
.math { font-size: 17px; font-weight: 560; fill: #3F4654; }
</style>
<marker id="arrow" markerWidth="12" markerHeight="12" refX="10" refY="6" orient="auto" markerUnits="strokeWidth"><path d="M2,2 L10,6 L2,10" fill="none" stroke="context-stroke" stroke-width="2" stroke-linecap="round" stroke-linejoin="round"/></marker>
</defs>
<rect width="100%" height="100%" fill="#FFFFFF"/>
<line x1="75.0" y1="274.0" x2="375.0" y2="274.0" stroke="#6B7280" stroke-width="1.8" stroke-linecap="round" marker-end="url(#arrow)"/><line x1="75.0" y1="274.0" x2="75.0" y2="84.0" stroke="#6B7280" stroke-width="1.8" stroke-linecap="round" marker-end="url(#arrow)"/><text class="small" x="393" y="278" text-anchor="start" dominant-baseline="middle">키 x</text><text class="small" x="65" y="72" text-anchor="end" dominant-baseline="middle">P(x)</text>
<path d="M 106.2 280.3 L 109.2 279.9 L 112.2 279.4 L 115.2 278.8 L 118.2 278.0 L 121.2 277.2 L 124.2 276.1 L 127.3 274.9 L 130.3 273.4 L 133.3 271.7 L 136.3 269.8 L 139.3 267.6 L 142.3 265.1 L 145.3 262.2 L 148.3 259.0 L 151.3 255.4 L 154.3 251.5 L 157.3 247.2 L 160.3 242.5 L 163.3 237.4 L 166.4 231.9 L 169.4 226.1 L 172.4 220.0 L 175.4 213.6 L 178.4 207.0 L 181.4 200.2 L 184.4 193.3 L 187.4 186.4 L 190.4 179.6 L 193.4 172.9 L 196.4 166.4 L 199.4 160.2 L 202.4 154.5 L 205.5 149.2 L 208.5 144.5 L 211.5 140.5 L 214.5 137.2 L 217.5 134.7 L 220.5 133.0 L 223.5 132.1 L 226.5 132.1 L 229.5 133.0 L 232.5 134.7 L 235.5 137.2 L 238.5 140.5 L 241.5 144.5 L 244.5 149.2 L 247.6 154.5 L 250.6 160.2 L 253.6 166.4 L 256.6 172.9 L 259.6 179.6 L 262.6 186.4 L 265.6 193.3 L 268.6 200.2 L 271.6 207.0 L 274.6 213.6 L 277.6 220.0 L 280.6 226.1 L 283.6 231.9 L 286.7 237.4 L 289.7 242.5 L 292.7 247.2 L 295.7 251.5 L 298.7 255.4 L 301.7 259.0 L 304.7 262.2 L 307.7 265.1 L 310.7 267.6 L 313.7 269.8 L 316.7 271.7 L 319.7 273.4 L 322.7 274.9 L 325.8 276.1 L 328.8 277.2 L 331.8 278.0 L 334.8 278.8 L 337.8 279.4 L 340.8 279.9 L 343.8 280.3" fill="none" stroke="#2F6FEB" stroke-width="3" stroke-linecap="round" stroke-linejoin="round"/>
<circle cx="175.0" cy="290.0" r="5" fill="#D94E4E" stroke="white" stroke-width="1.5"/>
<circle cx="190.0" cy="290.0" r="5" fill="#D94E4E" stroke="white" stroke-width="1.5"/>
<circle cx="208.0" cy="290.0" r="5" fill="#D94E4E" stroke="white" stroke-width="1.5"/>
<circle cx="232.0" cy="290.0" r="5" fill="#D94E4E" stroke="white" stroke-width="1.5"/>
<circle cx="248.0" cy="290.0" r="5" fill="#D94E4E" stroke="white" stroke-width="1.5"/>
<circle cx="266.0" cy="290.0" r="5" fill="#D94E4E" stroke="white" stroke-width="1.5"/>
<circle cx="286.0" cy="290.0" r="5" fill="#D94E4E" stroke="white" stroke-width="1.5"/>
<text class="label" x="225" y="42" text-anchor="middle" dominant-baseline="middle">모집단의 숨겨진 분포</text>
<text class="small" x="225" y="320" text-anchor="middle" dominant-baseline="middle">우리가 보는 것은 전체가 아니라 샘플 몇 개다</text>
<line x1="405.0" y1="184.0" x2="500.0" y2="184.0" stroke="#2F6FEB" stroke-width="2.4" stroke-linecap="round" marker-end="url(#arrow)"/>
<rect x="520" y="84" width="245" height="190" rx="12" fill="#F8FAFC" stroke="#A9B4C4" stroke-width="2"/>
<text class="label" x="642" y="128" text-anchor="middle" dominant-baseline="middle">샘플링</text>
<text class="small" x="642" y="168" text-anchor="middle" dominant-baseline="middle">모집단에서 관측치를 뽑는다</text>
<text class="small" x="642" y="204" text-anchor="middle" dominant-baseline="middle">분포 자체는 보이지 않는다</text>
<line x1="790.0" y1="184.0" x2="885.0" y2="184.0" stroke="#2F6FEB" stroke-width="2.4" stroke-linecap="round" marker-end="url(#arrow)"/>
<line x1="905.0" y1="274.0" x2="1165.0" y2="274.0" stroke="#6B7280" stroke-width="1.8" stroke-linecap="round" marker-end="url(#arrow)"/><line x1="905.0" y1="274.0" x2="905.0" y2="84.0" stroke="#6B7280" stroke-width="1.8" stroke-linecap="round" marker-end="url(#arrow)"/><text class="small" x="1183" y="278" text-anchor="start" dominant-baseline="middle">x</text><text class="small" x="895" y="72" text-anchor="end" dominant-baseline="middle">Pθ(x)</text>
<path d="M 921.0 280.5 L 923.9 280.1 L 926.8 279.7 L 929.7 279.1 L 932.5 278.4 L 935.4 277.6 L 938.3 276.7 L 941.2 275.6 L 944.1 274.3 L 947.0 272.8 L 949.9 271.0 L 952.7 269.0 L 955.6 266.8 L 958.5 264.2 L 961.4 261.3 L 964.3 258.1 L 967.2 254.5 L 970.1 250.7 L 972.9 246.4 L 975.8 241.8 L 978.7 236.9 L 981.6 231.7 L 984.5 226.2 L 987.4 220.4 L 990.3 214.5 L 993.2 208.4 L 996.0 202.2 L 998.9 196.0 L 1001.8 189.8 L 1004.7 183.8 L 1007.6 177.9 L 1010.5 172.4 L 1013.4 167.2 L 1016.2 162.5 L 1019.1 158.3 L 1022.0 154.7 L 1024.9 151.7 L 1027.8 149.4 L 1030.7 147.9 L 1033.6 147.1 L 1036.4 147.1 L 1039.3 147.9 L 1042.2 149.4 L 1045.1 151.7 L 1048.0 154.7 L 1050.9 158.3 L 1053.8 162.5 L 1056.6 167.2 L 1059.5 172.4 L 1062.4 177.9 L 1065.3 183.8 L 1068.2 189.8 L 1071.1 196.0 L 1074.0 202.2 L 1076.8 208.4 L 1079.7 214.5 L 1082.6 220.4 L 1085.5 226.2 L 1088.4 231.7 L 1091.3 236.9 L 1094.2 241.8 L 1097.1 246.4 L 1099.9 250.7 L 1102.8 254.5 L 1105.7 258.1 L 1108.6 261.3 L 1111.5 264.2 L 1114.4 266.8 L 1117.3 269.0 L 1120.1 271.0 L 1123.0 272.8 L 1125.9 274.3 L 1128.8 275.6 L 1131.7 276.7 L 1134.6 277.6 L 1137.5 278.4 L 1140.3 279.1 L 1143.2 279.7 L 1146.1 280.1 L 1149.0 280.5" fill="none" stroke="#2F6FEB" stroke-width="3" stroke-linecap="round" stroke-linejoin="round"/>
<path d="M 916.0 280.7 L 918.4 280.4 L 920.9 280.0 L 923.3 279.5 L 925.7 279.0 L 928.2 278.3 L 930.6 277.5 L 933.0 276.5 L 935.4 275.4 L 937.9 274.1 L 940.3 272.7 L 942.7 271.0 L 945.2 269.0 L 947.6 266.8 L 950.0 264.4 L 952.5 261.6 L 954.9 258.6 L 957.3 255.3 L 959.7 251.7 L 962.2 247.8 L 964.6 243.6 L 967.0 239.1 L 969.5 234.5 L 971.9 229.6 L 974.3 224.5 L 976.8 219.3 L 979.2 214.0 L 981.6 208.7 L 984.1 203.5 L 986.5 198.3 L 988.9 193.4 L 991.3 188.6 L 993.8 184.2 L 996.2 180.2 L 998.6 176.6 L 1001.1 173.5 L 1003.5 171.0 L 1005.9 169.1 L 1008.4 167.7 L 1010.8 167.1 L 1013.2 167.1 L 1015.6 167.7 L 1018.1 169.1 L 1020.5 171.0 L 1022.9 173.5 L 1025.4 176.6 L 1027.8 180.2 L 1030.2 184.2 L 1032.7 188.6 L 1035.1 193.4 L 1037.5 198.3 L 1039.9 203.5 L 1042.4 208.7 L 1044.8 214.0 L 1047.2 219.3 L 1049.7 224.5 L 1052.1 229.6 L 1054.5 234.5 L 1057.0 239.1 L 1059.4 243.6 L 1061.8 247.8 L 1064.3 251.7 L 1066.7 255.3 L 1069.1 258.6 L 1071.5 261.6 L 1074.0 264.4 L 1076.4 266.8 L 1078.8 269.0 L 1081.3 271.0 L 1083.7 272.7 L 1086.1 274.1 L 1088.6 275.4 L 1091.0 276.5 L 1093.4 277.5 L 1095.8 278.3 L 1098.3 279.0 L 1100.7 279.5 L 1103.1 280.0 L 1105.6 280.4 L 1108.0 280.7" fill="none" stroke="#3F4654" stroke-width="2" stroke-linecap="round" stroke-linejoin="round"/>
<path d="M 927.0 280.9 L 930.4 280.6 L 933.8 280.3 L 937.3 279.9 L 940.7 279.4 L 944.1 278.8 L 947.5 278.1 L 950.9 277.2 L 954.3 276.3 L 957.8 275.2 L 961.2 273.9 L 964.6 272.4 L 968.0 270.7 L 971.4 268.8 L 974.8 266.7 L 978.3 264.3 L 981.7 261.7 L 985.1 258.8 L 988.5 255.6 L 991.9 252.2 L 995.4 248.6 L 998.8 244.7 L 1002.2 240.7 L 1005.6 236.4 L 1009.0 232.0 L 1012.4 227.5 L 1015.9 222.9 L 1019.3 218.3 L 1022.7 213.7 L 1026.1 209.2 L 1029.5 204.9 L 1032.9 200.8 L 1036.4 197.0 L 1039.8 193.5 L 1043.2 190.4 L 1046.6 187.7 L 1050.0 185.5 L 1053.5 183.8 L 1056.9 182.6 L 1060.3 182.1 L 1063.7 182.1 L 1067.1 182.6 L 1070.5 183.8 L 1074.0 185.5 L 1077.4 187.7 L 1080.8 190.4 L 1084.2 193.5 L 1087.6 197.0 L 1091.1 200.8 L 1094.5 204.9 L 1097.9 209.2 L 1101.3 213.7 L 1104.7 218.3 L 1108.1 222.9 L 1111.6 227.5 L 1115.0 232.0 L 1118.4 236.4 L 1121.8 240.7 L 1125.2 244.7 L 1128.6 248.6 L 1132.1 252.2 L 1135.5 255.6 L 1138.9 258.8 L 1142.3 261.7 L 1145.7 264.3 L 1149.2 266.7 L 1152.6 268.8 L 1156.0 270.7 L 1159.4 272.4 L 1162.8 273.9 L 1166.2 275.2 L 1169.7 276.3 L 1173.1 277.2 L 1176.5 278.1 L 1179.9 278.8 L 1183.3 279.4 L 1186.7 279.9 L 1190.2 280.3 L 1193.6 280.6 L 1197.0 280.9" fill="none" stroke="#A9B4C4" stroke-width="2" stroke-linecap="round" stroke-linejoin="round"/>
<circle cx="995.0" cy="290.0" r="5" fill="#D94E4E" stroke="white" stroke-width="1.5"/>
<circle cx="1011.0" cy="290.0" r="5" fill="#D94E4E" stroke="white" stroke-width="1.5"/>
<circle cx="1028.0" cy="290.0" r="5" fill="#D94E4E" stroke="white" stroke-width="1.5"/>
<circle cx="1046.0" cy="290.0" r="5" fill="#D94E4E" stroke="white" stroke-width="1.5"/>
<circle cx="1061.0" cy="290.0" r="5" fill="#D94E4E" stroke="white" stroke-width="1.5"/>
<circle cx="1081.0" cy="290.0" r="5" fill="#D94E4E" stroke="white" stroke-width="1.5"/>
<text class="label" x="1035" y="42" text-anchor="middle" dominant-baseline="middle">모델링</text>
<text class="small" x="1035" y="320" text-anchor="middle" dominant-baseline="middle">샘플을 설명하는 분포나 규칙을 고른다</text>
</svg>